<svg width="33" height="39" viewBox="0 0 33 39" fill="none" xmlns="http://www.w3.org/2000/svg">
<g clip-path="url(#clip0_2_2)">
<path d="M4.125 22.75C5.26625 23.7932 6.98088 24.4026 8.9375 24.375C10.8941 24.4026 12.6088 23.7932 13.75 22.75C14.8913 21.7067 16.6059 21.0974 18.5625 21.125C20.5191 21.0974 22.2338 21.7067 23.375 22.75" stroke="#A7A6FF" stroke-width="3" stroke-linecap="round" stroke-linejoin="round"/>
<path d="M16.2054 5.74554C16.718 6.1114 17.1333 6.59584 17.4155 7.15702C17.6977 7.7182 17.8383 8.33925 17.825 8.96653C17.8383 9.59381 17.6977 10.2149 17.4155 10.776C17.1333 11.3372 16.718 11.8217 16.2054 12.1875" stroke="#A7A6FF" stroke-width="3" stroke-linecap="round" stroke-linejoin="round"/>
<path d="M9.57589 10.6205C10.0885 10.937 10.5038 11.3559 10.786 11.8413C11.0682 12.3266 11.2088 12.8637 11.1956 13.4063C11.2088 13.9488 11.0682 14.4859 10.786 14.9712C10.5038 15.4566 10.0885 15.8756 9.57589 16.192" stroke="#A7A6FF" stroke-width="3" stroke-linecap="round" stroke-linejoin="round"/>
<path d="M13.5536 9.40179C13.041 9.03594 12.6256 8.5515 12.3434 7.99032C12.0612 7.42914 11.9207 6.80809 11.9339 6.18081C11.9207 5.55353 12.0612 4.93248 12.3434 4.3713C12.6256 3.81012 13.041 3.32568 13.5536 2.95983" stroke="#A7A6FF" stroke-width="3" stroke-linecap="round" stroke-linejoin="round"/>
<path d="M4.125 16.25H23.375V24.375C23.375 26.9609 22.5058 29.4408 20.9586 31.2693C19.4115 33.0978 17.313 34.125 15.125 34.125H12.375C10.187 34.125 8.08854 33.0978 6.54137 31.2693C4.99419 29.4408 4.125 26.9609 4.125 24.375V16.25Z" stroke="#A7A6FF" stroke-width="3" stroke-linecap="round" stroke-linejoin="round"/>
<path d="M23.0258 27.1798C23.6398 27.5129 24.3137 27.6627 24.9883 27.6159C25.6628 27.5692 26.3173 27.3273 26.8942 26.9116C27.4711 26.4959 27.9527 25.919 28.2968 25.2318C28.6409 24.5446 28.8369 23.7679 28.8675 22.9702C28.8981 22.1725 28.7625 21.3781 28.4724 20.6569C28.1824 19.9356 27.7469 19.3096 27.2042 18.8339C26.6616 18.3582 26.0283 18.0472 25.3601 17.9285C24.692 17.8098 24.0093 17.8868 23.3723 18.1529" stroke="#A7A6FF" stroke-width="3" stroke-linecap="round" stroke-linejoin="round"/>
</g>
<defs>
<clipPath id="clip0_2_2">
<rect width="33" height="39" fill="white"/>
</clipPath>
</defs>
</svg>
